<svg width="100" height="101" viewBox="0 0 100 101" fill="none" xmlns="http://www.w3.org/2000/svg">
<circle cx="50" cy="50.5" r="50" fill="#C1E198"/>
<path d="M57.5 17C52 10 33.5 7.49999 27 23C18.5 24 14.5 32.5 15 39C10.5 41.5 9.00001 50.5 15 55C14 63.5 25 74 39 67.5L57 70.5L70 62.5C81.5 64.5 96 51.5 85.5 40.5C87 38 85.5 31.5 79 29C78 20.5 68 12 57.5 17Z" fill="#658042"/>
<path d="M27.3203 22.194C28.4516 19.5922 30.2683 17.2811 32.6156 15.4728C34.9633 13.6641 37.7666 12.4166 40.7761 11.8481C43.7857 11.2796 46.9013 11.4091 49.842 12.2244C52.7826 13.0397 55.4507 14.5134 57.6103 16.5069" stroke="#4D2603" stroke-width="2" stroke-linecap="round" stroke-linejoin="round"/>
<path d="M15.0921 39.1597C14.7931 36.4744 15.2251 33.7581 16.3423 31.2979C17.4594 28.8377 19.2204 26.725 21.4391 25.1829C23.6578 23.6408 26.2518 22.7267 28.9471 22.537C31.6424 22.3473 34.3389 22.8892 36.7517 24.1054" stroke="#4D2603" stroke-width="2" stroke-linecap="round" stroke-linejoin="round"/>
<path d="M15.0033 54.7483C13.7703 53.8736 12.7638 52.7173 12.0676 51.3754C11.3713 50.0336 11.0053 48.5449 11.0001 47.0332C10.9948 45.5215 11.3503 44.0303 12.0372 42.6836C12.7241 41.3369 13.7224 40.1736 14.9493 39.2903" stroke="#4D2603" stroke-width="2" stroke-linecap="round" stroke-linejoin="round"/>
<path d="M79.3966 28.9524C80.5847 29.3327 81.6863 29.9434 82.6385 30.7495C83.5906 31.5557 84.3747 32.5414 84.9458 33.6505C85.517 34.7597 85.8641 35.9704 85.9674 37.2137C86.0707 38.457 85.928 39.7084 85.5476 40.8966" stroke="#4D2603" stroke-width="2" stroke-linecap="round" stroke-linejoin="round"/>
<path d="M42.3719 65.4922C40.0549 67.4685 37.0617 68.8026 33.7931 69.2924C30.5246 69.7821 27.1615 69.4001 24.1663 68.2048C21.1712 67.0095 18.7081 65.0674 17.0904 62.6669C15.4752 60.2699 14.7755 57.5262 15.063 54.8041" stroke="#4D2603" stroke-width="2" stroke-linecap="round" stroke-linejoin="round"/>
<path d="M86.1542 41.3196C88.1822 43.7907 89.1636 46.7445 88.9777 49.711C88.7919 52.6788 87.4452 55.5356 85.1103 57.818C82.7726 60.1032 79.5823 61.6748 76.0375 62.2541C72.4929 62.8333 68.8267 62.3817 65.6302 60.9804" stroke="#4D2603" stroke-width="2" stroke-linecap="round" stroke-linejoin="round"/>
<path d="M50.7465 23.4754C52.2398 20.658 54.592 18.3898 57.4617 17C60.3314 15.6101 63.5694 15.1709 66.7057 15.746C69.842 16.3212 72.7134 17.8808 74.9032 20.1985C77.093 22.5163 78.4873 25.4715 78.8837 28.6354" stroke="#4D2603" stroke-width="2" stroke-linecap="round" stroke-linejoin="round"/>
<path d="M47.5 84.3174C46 70.2327 35.5 60.6551 23 58.965L24 54.4579C31.5 54.4579 45 56.148 52.5 70.2327C50.9 58.965 52.5 58.965 45.5 47.1339L51 41.5C57 46.5705 61.2 61.8946 60 66.8524C63 55.5847 69 51.641 78.5 49.9508L80 54.4579C66 58.4016 64.6 73.7257 67 83.1906C64.5 89.9512 50.7 90.1766 47.5 84.3174Z" fill="#97CD53" stroke="#4D2603" stroke-width="2" stroke-linejoin="round"/>
<path d="M26 61.5L23 60.5L20.5 59.5L21 48L49.5 36L79 42.5L83 52L82 55.5H75.5L71.5 52.5L71 50.5L68.5 51.5L62 50.5L59.5 48L58 49L51 52H45L38 50.5L34 52V54.5L33 57.5L30.5 60.5L26 61.5Z" fill="#658042"/>
<path d="M65 35.5C65 39.4561 63.4972 43.2992 60.7336 46.3582C57.9682 49.419 54.1144 51.5003 49.8357 52.2213C45.5568 52.9423 41.1426 52.2537 37.3658 50.2827C33.5901 48.3123 30.7016 45.1919 29.1833 41.4812" stroke="#4D2603" stroke-width="2" stroke-linecap="round"/>
<path d="M33.789 52.7942C34.1264 54.1369 34.058 55.5496 33.5925 56.8534C33.127 58.1573 32.2854 59.2939 31.174 60.1194C30.0626 60.945 28.7313 61.4224 27.3485 61.4913C25.9658 61.5603 24.5937 61.2176 23.4056 60.5067" stroke="#4D2603" stroke-width="2" stroke-linecap="round"/>
<path d="M79.6657 54.9726C78.8157 55.3226 77.9051 55.5018 76.9858 55.5C76.0666 55.4981 75.1567 55.3152 74.3081 54.9617C73.4596 54.6082 72.6889 54.091 72.0402 53.4397C71.3915 52.7884 70.8775 52.0157 70.5274 51.1657" stroke="#4D2603" stroke-width="2" stroke-linecap="round"/>
<path d="M73.2013 48.5877C72.3168 49.5142 71.2694 50.2466 70.1201 50.7453C68.9709 51.244 67.7409 51.5 66.5 51.5C65.2591 51.5 64.0291 51.244 62.8799 50.7453C61.7306 50.2466 60.6832 49.5142 59.7987 48.5877" stroke="#4D2603" stroke-width="2" stroke-linecap="round"/>
<path d="M38.0547 50.6837C36.6448 51.6132 35.0399 52.2056 33.3643 52.4151C31.6887 52.6245 29.9874 52.4454 28.3922 51.8915" stroke="#4D2603" stroke-width="2" stroke-linecap="round"/>
</svg>
