<svg width="100" height="100" viewBox="0 0 100 100" fill="none" xmlns="http://www.w3.org/2000/svg">
<circle cx="50" cy="50" r="50" fill="#D5CFE2"/>
<path d="M13 43C12.5 44.1667 11.4 47.3 11 50.5L22.5 59H50H80L89.5 50.5L88 41.5L85.5 37L81.5 33L75.5 31L74 25L69.5 19.5L66.5 17L62 16.5H55L50 19.5L46 24L44.5 23L39 21L30.5 22L24 27.5L22.5 33.5V37.5L18.5 38.5L15 40.5L13 43Z" fill="#FFEED6" stroke="black"/>
<path d="M11.1193 50.5802C10.8793 48.999 11.0023 47.3864 11.4803 45.8546C11.9583 44.3226 12.7804 42.9063 13.892 41.7061C15.0037 40.5058 16.378 39.5506 17.9202 38.91C19.4625 38.2695 21.1337 37.9599 22.8162 38.0042" stroke="#4D2603" stroke-width="2" stroke-linecap="round"/>
<path d="M73.2235 31.0681C75.3735 30.8382 77.5436 31.1915 79.5749 32.1091C81.6077 33.0274 83.4566 34.491 84.9745 36.4053C86.4926 38.3201 87.6364 40.6319 88.3102 43.1712C88.9839 45.7104 89.1677 48.4023 88.8459 51.0422" stroke="#4D2603" stroke-width="2" stroke-linecap="round"/>
<path d="M45.5113 24.5398C47.0367 21.4465 49.6134 18.9472 52.818 17.4655C56.0231 15.9835 59.6578 15.6115 63.1138 16.4134C66.5695 17.2153 69.631 19.1406 71.7909 21.8611C73.9503 24.5808 75.0793 27.9318 74.9957 31.3546" stroke="#4D2603" stroke-width="2"/>
<path d="M22.2308 37.4876C21.6873 34.5818 22.1092 31.5832 23.4384 28.921C24.7678 26.2582 26.9384 24.0658 29.644 22.6639C32.3499 21.2619 35.4484 20.7249 38.493 21.1329C41.5374 21.5408 44.3653 22.8717 46.5717 24.9286" stroke="#4D2603" stroke-width="2" stroke-linecap="round"/>
<path d="M37.1413 40.11C36.407 39.517 35.5199 39.144 34.5826 39.0341C33.6452 38.9241 32.6959 39.0817 31.8444 39.4885C30.9928 39.8954 30.2738 40.535 29.7704 41.3334C29.2671 42.1317 29 43.0562 29 44" stroke="#4D2603" stroke-width="2" stroke-linecap="round"/>
<path d="M54.7234 67.8246L75.5543 13.6858L80.1511 15.5431L57.0795 68.7766L54.7234 67.8246Z" fill="#E6B166" stroke="#4D2603" stroke-width="2"/>
<path d="M53.2779 66.5474L67.3557 10.2735L72.1447 11.5567L55.7326 67.2051L53.2779 66.5474Z" fill="#E6B166" stroke="#4D2603" stroke-width="2"/>
<path d="M61.6032 39.1933L62.6032 41.6933L67.6032 42.1933L70.6032 45.1933L71.1032 48.6933L65.6032 62.1933H51.1032L56.1032 38.1933L59.1032 37.1933L61.6032 39.1933Z" fill="#FFEED6"/>
<path d="M61.9778 41.7623C63.0266 41.292 64.1814 41.1082 65.3245 41.2297C66.4675 41.3512 67.5578 41.7737 68.4844 42.454C69.4109 43.1343 70.1405 44.0481 70.5986 45.1023C71.0568 46.1565 71.2273 47.3134 71.0926 48.4549" stroke="#4D2603" stroke-width="2" stroke-linecap="round"/>
<path d="M55.6858 38.0327C56.2383 37.6041 56.8935 37.3278 57.5861 37.2315C58.2786 37.1351 58.9844 37.222 59.6329 37.4834C60.2814 37.7448 60.8501 38.1717 61.2822 38.7215C61.7143 39.2712 61.9948 39.9247 62.0956 40.6166" stroke="#4D2603" stroke-width="2" stroke-linecap="round"/>
<path d="M90 50C90 60.6087 85.7857 70.7828 78.2843 78.2843C70.7828 85.7857 60.6087 90 50 90C39.3913 90 29.2172 85.7857 21.7157 78.2843C14.2143 70.7828 10 60.6087 10 50L19.5 51.5L29 52.5L39.5 53H49.5H59.5L70 52.5L80 51.5L90 50Z" fill="#978CAF"/>
<path d="M25.5 53.5C25.5 74 43 89.3829 66 84.5C63 86.5 59.5 88 50 90C39.3913 90 29.2172 85.7857 21.7157 78.2843C14.2143 70.7828 10 60.6087 10 50L12.5 51.5L25.5 53.5Z" fill="#6F6781"/>
<path d="M88.9827 51.1638C88.6868 61.0851 84.6163 70.538 77.5772 77.5772C70.2632 84.8911 60.3434 89 50 89C39.6566 89 29.7368 84.8911 22.4228 77.5772C15.3859 70.5402 11.3158 61.091 11.0176 51.1731L19.344 52.4878C19.3611 52.4905 19.3782 52.4927 19.3953 52.4945L28.8953 53.4945C28.9143 53.4965 28.9334 53.498 28.9524 53.4989L39.4524 53.9989C39.4683 53.9996 39.4841 54 39.5 54H49.5H59.5C59.5159 54 59.5317 53.9996 59.5476 53.9989L70.0476 53.4989C70.0649 53.498 70.0822 53.4968 70.0995 53.495L80.0995 52.495C80.1158 52.4934 80.1321 52.4914 80.1483 52.4889L88.9827 51.1638Z" stroke="#4D2603" stroke-width="2" stroke-linejoin="round"/>
</svg>
