<svg width="100" height="101" viewBox="0 0 100 101" fill="none" xmlns="http://www.w3.org/2000/svg">
<circle cx="50" cy="50.5" r="50" fill="#FFD79C"/>
<path d="M63 21.8623L60.071 26.3623L65.571 30.3623L67.5 24.5C70 27.5 75 28 75 23C75 18 71.4 19.2 69 20C68.8333 18 66.6 13.4 63 15C59.4 16.6 57.8 21.8623 63 21.8623Z" fill="#FFEED6" stroke="#4D2603" stroke-width="2"/>
<path d="M47.1004 27.9167L47.1006 27.9168L47.1011 27.917L47.1014 27.9171L47.4869 28.0852L47.8773 27.9261C51.2038 26.5709 54.3708 25.6316 57.1149 25.2482C59.883 24.8614 62.0942 25.0581 63.609 25.8288C65.0381 26.5559 65.9751 27.8573 66.1193 30.0879C66.2676 32.3836 65.5642 35.633 63.6042 40.0532C63.6011 40.0587 63.5976 40.065 63.5936 40.072C63.5851 40.0871 63.5746 40.1056 63.5623 40.1271C63.5191 40.2024 63.453 40.316 63.3641 40.4635C63.1864 40.7585 62.918 41.1888 62.5609 41.7196C61.8462 42.782 60.7792 44.2428 59.3765 45.8258C56.5628 49.0011 52.4444 52.6159 47.1582 54.5381C42.0319 56.4022 37.5211 55.0556 34.2567 52.3951C30.9483 49.6987 29 45.7174 29 42.4779C29 36.6062 30.1954 32.8706 31.8623 30.5227C33.5122 28.1987 35.6978 27.1303 37.9261 26.7316C40.1802 26.3283 42.4703 26.6149 44.2281 27.0209C45.1009 27.2225 45.8276 27.45 46.3334 27.626C46.5859 27.714 46.7825 27.7887 46.9137 27.8405C46.9792 27.8664 47.0284 27.8865 47.0599 27.8996L47.0938 27.9139L47.1004 27.9167Z" fill="#DC8C1B" stroke="#4D2603" stroke-width="2"/>
<path d="M89.5 58.0001C89.5 75.208 69.6584 90.5001 49.5 90.5001C29.3416 90.5001 8.50001 74.5001 8.50001 50.0001C8.50001 29.0001 32.5 23 44.5 36C56.5 49 89.5 29.5 89.5 58.0001Z" fill="#E7A64C"/>
<path d="M39.5 48.5C39.5 65.5 60.5 63 88.5 55.5C82.5 107.5 1 96 11 41.5C23 20.5 43 35.5 39.5 48.5Z" fill="#DC8C1B"/>
<path d="M88.5 58.0001C88.5 66.2098 83.7587 74.0729 76.4354 79.9216C69.1201 85.7639 59.3372 89.5001 49.5 89.5001C29.807 89.5001 9.50001 73.8647 9.50001 50.0001C9.50001 39.9466 15.2091 33.5678 22.3162 31.1987C29.4708 28.8138 38.0511 30.488 43.7652 36.6783C47.0178 40.2019 51.6369 41.4567 56.501 41.9098C58.9423 42.1371 61.4906 42.166 64.0144 42.1592C64.6025 42.1576 65.1885 42.1541 65.7718 42.1506C67.7071 42.139 69.6127 42.1275 71.468 42.187C76.3252 42.3427 80.5518 42.9855 83.5687 45.1764C86.5055 47.3091 88.5 51.0728 88.5 58.0001Z" stroke="#4D2603" stroke-width="2"/>
<path d="M79 41.5L76 46L81.5 50L84 44C86 44.8334 90.5 45.5 90.5 41.5C90.5 36.5 86.4 37.2 84 38C83.8333 36 81.1 31.9 77.5 33.5C73.9 35.1 73.8 41.5 79 41.5Z" fill="#FFEED6" stroke="#4D2603" stroke-width="2"/>
<path d="M82 60.5C82 60.5 76.5 73.5 65.5 77.5C54.5 81.5 46 71.6797 46 64.5C46 47 66.5 50 66.5 50C73.5 38.5 90 42.5 82 60.5Z" fill="#DC8C1B"/>
<path d="M81.0862 60.0939L81.0825 60.1021L81.0792 60.1099L81.0792 60.11L81.079 60.1104L81.079 60.1105L81.0769 60.1154L81.0667 60.1389C81.0573 60.1605 81.0426 60.1942 81.0225 60.2391C80.9824 60.329 80.9209 60.464 80.8383 60.6387C80.6728 60.9883 80.4226 61.4966 80.0876 62.1209C79.417 63.3707 78.4101 65.0793 77.0686 66.9086C74.3724 70.5853 70.3923 74.6569 65.1583 76.5602C60.0319 78.4243 55.5211 77.0777 52.2568 74.4172C48.9483 71.7207 47 67.7395 47 64.5C47 60.3348 48.2133 57.4861 49.9532 55.5129C51.7081 53.5226 54.0762 52.3358 56.5201 51.6503C58.9634 50.965 61.4263 50.7971 63.2928 50.8047C64.2226 50.8085 64.9961 50.8557 65.5341 50.9017C65.8029 50.9246 66.0124 50.9472 66.1527 50.9637C66.2228 50.972 66.2756 50.9787 66.3098 50.9833L66.3469 50.9883L66.3547 50.9894L66.3552 50.9895L66.3558 50.9896L66.3559 50.9896L67.0101 51.0853L67.3542 50.52C70.6694 45.0736 76.0474 43.551 79.4623 45.0984C81.148 45.8622 82.4825 47.4095 82.956 49.8397C83.4353 52.2997 83.0347 55.7097 81.0862 60.0939Z" stroke="#4D2603" stroke-width="2"/>
</svg>
