<svg width="100" height="100" viewBox="0 0 100 100" fill="none" xmlns="http://www.w3.org/2000/svg">
<circle cx="50" cy="50" r="50" fill="#FFB3B3"/>
<path d="M50.5 42.1914C50.3333 45.1957 53 50.6352 65 48.3582L70 49.7813V56.4226L32 73.5L12 56.8969C10.5 51.2045 9.79999 40.7682 15 31.2808C18.1667 26.0627 26.5 16.2906 34.5 18.9471C36.8333 19.7377 41 22.8369 39 28.9089C37.5 32.5458 35.9 39.3451 41.5 37.4476C44.5 36.4989 50.5 36.1194 50.5 42.1914Z" fill="#9ECD6F"/>
<path d="M34.5 18.9471C25.1875 31.2808 25.3737 46.0869 25.3737 53.3309L12 56.8969C10.5 51.2045 9.79999 40.7682 15 31.2808C18.1667 26.0627 26.5 16.2906 34.5 18.9471Z" fill="#87A26D"/>
<path d="M50.5 42.1914C50.3333 45.1957 53 50.6352 65 48.3582L70 49.7813V56.4226L32 73.5L12 56.8969C10.5 51.2045 9.79999 40.7682 15 31.2808C18.1667 26.0627 26.5 16.2906 34.5 18.9471C36.8333 19.7377 41 22.8369 39 28.9089C37.5 32.5458 35.9 39.3451 41.5 37.4476C44.5 36.4989 50.5 36.1194 50.5 42.1914Z" stroke="#4D2603" stroke-width="2" stroke-linejoin="round"/>
<path d="M53.5912 29.041C53.5609 29.0275 53.5304 29.0138 53.5 29C50.5 25.5 52.5 20.5 54.5 19C58.5 14.5 62 16 62 9.5C73.9668 18.9737 64.5524 33.9171 53.5912 29.041Z" fill="#9ECD6F"/>
<path d="M47 30.5C53.5 30.5 58.5 27 62 19.5M53.5 29C64.5 34 74 19 62 9.5C62 16 58.5 14.5 54.5 19C52.5 20.5 50.5 25.5 53.5 29Z" stroke="#4D2603" stroke-width="2" stroke-linecap="round" stroke-linejoin="round"/>
<path d="M60.9447 46.9837C53.9799 51.684 52.4874 48.0684 50 52.4072L84.8241 60C87.3116 57.1075 91.2915 48.5023 87.3116 37.2215C83.3317 25.9407 75.0402 30.3518 71.392 33.9674C66.2844 39.0293 66.5166 43.2235 60.9447 46.9837Z" fill="#9ECD6F" stroke="#4D2603" stroke-width="2" stroke-linejoin="round"/>
<path d="M28.4464 46.2368C29.3567 48.3592 32.5434 47.5053 32.2705 45.2121L30.5989 31.1662C30.4549 29.9564 29.272 29.1554 28.0952 29.4707L24.1915 30.5167C23.0147 30.832 22.3909 32.1172 22.8711 33.2368L28.4464 46.2368Z" fill="#9ECD6F"/>
<path d="M33.5579 54.1608L24.3045 37.6644C23.9518 37.0356 23.2623 36.6732 22.5444 36.7392C20.6795 36.9107 19.7955 34.4988 21.3296 33.4246L21.873 33.0441C22.9122 32.3164 24.3576 32.7277 24.858 33.8935L33.5579 54.1608Z" fill="#87A26D"/>
<path d="M31.4247 54.7324L31.1901 35.8194C31.1811 35.0985 31.5971 34.4399 32.2518 34.1381C33.9526 33.3542 33.5122 30.8234 31.6465 30.6602L30.9857 30.6024C29.7219 30.4918 28.6758 31.5707 28.8253 32.8305L31.4247 54.7324Z" fill="#87A26D"/>
<path d="M24.9973 41.1712C24.9973 41.1712 24.3502 38.7563 23.6084 37.9198C22.7413 36.942 20.4758 37.8199 19.8048 35.3156C19.1338 32.8112 22.0555 32.1243 22.0555 32.1243C22.0555 32.1243 22.2797 31.0289 23.5992 30.1578C24.9186 29.2866 25.8846 29.0277 25.8846 29.0277" stroke="#4D2603" stroke-width="2"/>
<path d="M32.2417 39.23C32.2417 39.23 31.5947 36.8152 31.8188 35.7199C32.0808 34.4395 34.4818 34.067 33.8107 31.5627C33.1397 29.0583 30.2659 29.9243 30.2659 29.9243C30.2659 29.9243 29.5241 29.0878 27.9458 28.9931C26.3675 28.8983 25.8846 29.0277 25.8846 29.0277" stroke="#4D2603" stroke-width="2"/>
<path d="M30.3478 64.4993L20.9054 48.6315C19.2103 45.7827 20.7061 42.103 23.9082 41.245L33.5938 38.6497C36.7958 37.7918 39.9312 40.2306 39.8875 43.5453L39.6441 62.0084C39.5776 67.054 32.9282 68.8357 30.3478 64.4993Z" fill="#FB8864" stroke="#4C2603" stroke-width="2"/>
<circle cx="70" cy="48" r="13" fill="#FB8864" stroke="#4D2603" stroke-width="2"/>
<path d="M68.4175 44.8307C69.2169 45.8716 70.7852 45.8734 71.5871 44.8344L75.11 40.2696C75.6562 39.5617 75.6358 38.5802 74.8646 38.1278C73.9325 37.5809 72.3818 37 69.9999 37C67.6123 37 66.0681 37.5837 65.1445 38.1317C64.383 38.5835 64.3659 39.5551 64.9053 40.2574L68.4175 44.8307Z" fill="#CF603D"/>
<path d="M66.4555 48.5517C67.6925 48.1131 68.1789 46.6221 67.4385 45.5385L64.1857 40.7774C63.6813 40.0391 62.7415 39.7552 62.0729 40.3489C61.2648 41.0663 60.2331 42.3617 59.497 44.627C58.7592 46.8978 58.8372 48.5467 59.0729 49.5944C59.2673 50.4583 60.1861 50.7747 61.0207 50.4788L66.4555 48.5517Z" fill="#CF603D"/>
<path d="M69.4571 51.6496C69.468 50.3373 68.2333 49.3703 66.9618 49.6953L61.3753 51.1236C60.5091 51.345 59.9209 52.1311 60.25 52.9624C60.6478 53.9672 61.5122 55.3797 63.3892 56.8461C65.2706 58.3161 66.8468 58.8068 67.9119 58.9436C68.7902 59.0564 69.4018 58.3013 69.4092 57.4158L69.4571 51.6496Z" fill="#CF603D"/>
<path d="M72.4583 45.514C71.7153 46.5959 72.1982 48.088 73.4341 48.5295L78.8642 50.4694C79.7062 50.7702 80.6334 50.4474 80.8254 49.5742C81.0574 48.5187 81.1307 46.8644 80.3947 44.599C79.6568 42.3283 78.6246 41.0401 77.818 40.331C77.1529 39.7464 76.2237 40.0304 75.7224 40.7604L72.4583 45.514Z" fill="#CF603D"/>
<path d="M72.9323 49.6832C71.6615 49.3551 70.4245 50.3192 70.4323 51.6316L70.4667 57.3977C70.472 58.2918 71.0924 59.0526 71.9786 58.9344C73.0498 58.7915 74.6294 58.2945 76.5064 56.828C78.3879 55.3581 79.2453 53.9475 79.6358 52.947C79.9577 52.1221 79.373 51.346 78.5156 51.1247L72.9323 49.6832Z" fill="#CF603D"/>
<path d="M90 49C90 59.6087 85.7857 69.7828 78.2843 77.2843C70.7828 84.7857 60.6087 89 50 89C39.3913 89 29.2172 84.7857 21.7157 77.2843C14.2143 69.7828 10 59.6087 10 49L19.5 50.5L29 51.5L39.5 52H49.5H59.5L70 51.5L80 50.5L90 49Z" fill="#F58080"/>
<path d="M25.5 52.5C25.5 73 43 88.3829 66 83.5C63 85.5 59.5 87 50 89C39.3913 89 29.2172 84.7857 21.7157 77.2843C14.2143 69.7828 10 59.6087 10 49L12.5 50.5L25.5 52.5Z" fill="#CF6767"/>
<path d="M88.9827 50.1638C88.6868 60.0851 84.6163 69.538 77.5772 76.5772C70.2632 83.8911 60.3434 88 50 88C39.6566 88 29.7368 83.8911 22.4228 76.5772C15.3859 69.5402 11.3158 60.091 11.0176 50.1731L19.344 51.4878C19.3611 51.4905 19.3782 51.4927 19.3953 51.4945L28.8953 52.4945C28.9143 52.4965 28.9334 52.498 28.9524 52.4989L39.4524 52.9989C39.4683 52.9996 39.4841 53 39.5 53H49.5H59.5C59.5159 53 59.5317 52.9996 59.5476 52.9989L70.0476 52.4989C70.0649 52.498 70.0822 52.4968 70.0995 52.495L80.0995 51.495C80.1158 51.4934 80.1321 51.4914 80.1483 51.4889L88.9827 50.1638Z" stroke="#4D2603" stroke-width="2" stroke-linejoin="round"/>
</svg>
