<svg width="89" height="92" viewBox="0 0 89 92" fill="none" xmlns="http://www.w3.org/2000/svg">
<path d="M81.3389 34.1245L81.0338 34.2536V34.5849V81.4999C81.0338 86.7466 76.7805 90.9999 71.5338 90.9999H17.5269C12.2802 90.9999 8.02685 86.7466 8.02685 81.4999V34.5849V34.2805L7.75644 34.1407C3.86066 32.1271 1.81321 29.0651 1.45391 25.6232C1.09262 22.1623 2.43055 18.2338 5.4843 14.5095C11.5897 7.06344 24.4815 0.545116 43.6355 0.545105C63.7278 0.545093 77.4997 7.26186 84.0324 14.8134C87.301 18.5918 88.7272 22.5379 88.3124 25.9454C87.9009 29.3262 85.6623 32.2944 81.3389 34.1245Z" fill="#E6B166" stroke="#E6B166"/>
<path d="M74.7705 77.4518V30.6212C93.2018 26.6716 76.7771 5.98346 44.4905 5.98348C13.6987 5.9835 -1.21163 26.6716 13.8697 30.6212L13.8697 79.3326C13.8697 84.0735 14.6848 85.0259 19.1005 85.0259H70.0686C74.4843 85.0259 74.7705 82.1928 74.7705 77.4518Z" fill="#FFEED6"/>
<path d="M71.7605 71.2115C71.7605 64.6785 68.9399 58.4132 63.9191 53.7937C58.8984 49.1742 52.0888 46.579 44.9884 46.579C37.888 46.579 31.0783 49.1742 26.0576 53.7937C21.0368 58.4132 16.0677 67.8547 18.7902 71.2115C21.5127 74.5683 22.409 73.6184 25.0134 71.2115C27.6177 68.8045 26.9695 62.8406 30.9009 58.2499C34.6371 54.8123 38.1194 53.7937 43.9536 52.7279C49.2375 52.7279 54.8679 52.1426 58.6041 55.5802C62.3403 59.0178 64.9111 66.35 64.9111 71.2115C64.9111 76.073 71.7605 77.7444 71.7605 71.2115Z" fill="#CF3707"/>
<path d="M70.8586 69.6861C70.8586 66.0933 70.1255 62.4875 67.5156 59.7814C65.5526 57.7459 65.6921 59.6701 67.5156 61.5606C69.3391 63.4511 67.5156 67.0125 67.5156 69.6861C67.5156 72.3597 70.8586 73.2788 70.8586 69.6861Z" fill="#FB8864"/>
<path d="M39.1565 31.87C39.1565 35.7105 36.5125 38.3192 32.8391 38.3192C27.7191 41.5035 22.7074 39.4726 22.7074 35.632C22.7074 31.7915 29.1657 27.5299 32.839 27.5299C36.5124 27.5299 39.1565 28.0295 39.1565 31.87Z" fill="#CF3707"/>
<path d="M38.3042 30.2945C38.3042 31.9301 37.286 33.0411 35.8715 33.0411C33.8999 34.3973 31.9701 33.5323 31.9701 31.8967C31.9701 30.261 34.457 28.446 35.8715 28.446C37.286 28.446 38.3042 28.6588 38.3042 30.2945Z" fill="#FB8864"/>
<path d="M63.5308 34.188C63.5308 37.3027 63.4011 40.9298 55.8167 38.3368C52.3438 38.3368 49.5286 36.2844 49.5286 33.1696C49.5286 30.0549 52.3438 27.5298 55.8167 27.5298C59.2895 27.5298 63.5308 31.0732 63.5308 34.188Z" fill="#CF3707"/>
<path d="M60.9893 31.5887C60.9893 32.902 60.9347 34.4313 57.743 33.338C56.2816 33.338 55.0969 32.4726 55.0969 31.1593C55.0969 29.846 56.2816 28.7813 57.743 28.7813C59.2044 28.7813 60.9893 30.2753 60.9893 31.5887Z" fill="#FB8864"/>
</svg>
